<svg width="60" height="60" viewBox="0 0 60 60" fill="none" xmlns="http://www.w3.org/2000/svg">
<circle cx="30" cy="30" r="30" fill="#006491"/>
<path d="M46 30C46.0009 30.3918 45.902 30.7771 45.7128 31.1185C45.5237 31.46 45.2507 31.7459 44.9204 31.9485L24.4545 44.6604C24.1095 44.8749 23.7143 44.992 23.3098 44.9996C22.9052 45.0072 22.506 44.905 22.1534 44.7036C21.8041 44.5053 21.5132 44.2162 21.3105 43.8659C21.1077 43.5156 21.0006 43.1167 21 42.7104V17.2896C21.0006 16.8833 21.1077 16.4844 21.3105 16.1341C21.5132 15.7838 21.8041 15.4947 22.1534 15.2964C22.506 15.095 22.9052 14.9928 23.3098 15.0004C23.7143 15.008 24.1095 15.1251 24.4545 15.3396L44.9204 28.0515C45.2507 28.2541 45.5237 28.54 45.7128 28.8815C45.902 29.2229 46.0009 29.6082 46 30Z" fill="white"/>
</svg>
