<svg width="60" height="60" viewBox="0 0 60 60" fill="none" xmlns="http://www.w3.org/2000/svg">
<circle cx="30" cy="30" r="29" fill="#E31837" stroke="#E31837" stroke-width="2"/>
<path d="M30 22C33.3363 22 36.6234 22.6826 39.8613 24.0477C43.0993 25.4128 45.9758 27.4594 48.4911 30.1873C48.8304 30.532 49 30.9342 49 31.3939C49 31.8535 48.8304 32.2557 48.4911 32.6004L44.5893 36.4786C44.2783 36.7946 43.9175 36.967 43.507 36.9957C43.0964 37.0244 42.7221 36.9095 42.3839 36.651L37.4643 32.8589C37.2381 32.6866 37.0685 32.4855 36.9554 32.2557C36.8423 32.0259 36.7857 31.7673 36.7857 31.48V26.5677C35.7113 26.2229 34.6086 25.95 33.4777 25.7489C32.3467 25.5478 31.1875 25.4473 30 25.4473C28.8125 25.4473 27.6533 25.5478 26.5223 25.7489C25.3914 25.95 24.2887 26.2229 23.2143 26.5677V31.48C23.2143 31.7673 23.1577 32.0259 23.0446 32.2557C22.9315 32.4855 22.7619 32.6866 22.5357 32.8589L17.6161 36.651C17.2768 36.9095 16.9019 37.0244 16.4913 36.9957C16.0808 36.967 15.7206 36.7946 15.4107 36.4786L11.5089 32.6004C11.1696 32.2557 11 31.8535 11 31.3939C11 30.9342 11.1696 30.532 11.5089 30.1873C13.997 27.4582 16.8668 25.4117 20.1183 24.0477C23.3698 22.6837 26.6637 22.0011 30 22Z" fill="white"/>
</svg>
