<svg width="80px" height="80px" viewBox="-7.2 -7.2 38.40 38.40" fill="none" xmlns="http://www.w3.org/2000/svg"><g id="SVGRepo_bgCarrier" stroke-width="0"><rect x="-7.2" y="-7.2" width="38.40" height="38.40" rx="19.2" fill="#fff" strokewidth="0"></rect></g><g id="SVGRepo_tracerCarrier" stroke-linecap="round" stroke-linejoin="round"></g><g id="SVGRepo_iconCarrier"> <path fill-rule="evenodd" clip-rule="evenodd" d="M12 1C9.79086 1 8 2.79086 8 5V12C8 14.2091 9.79086 16 12 16C14.2091 16 16 14.2091 16 12V5C16 2.79086 14.2091 1 12 1ZM10 5C10 3.89543 10.8954 3 12 3C13.1046 3 14 3.89543 14 5V12C14 13.1046 13.1046 14 12 14C10.8954 14 10 13.1046 10 12V5Z" fill="#121212"></path> <path d="M5 9C5.55228 9 6 9.44771 6 10V12C6 13.5913 6.63214 15.1174 7.75736 16.2426C8.88258 17.3679 10.4087 18 12 18C13.5913 18 15.1174 17.3679 16.2426 16.2426C17.3679 15.1174 18 13.5913 18 12V10C18 9.44771 18.4477 9 19 9C19.5523 9 20 9.44771 20 10V12C20 14.1217 19.1571 16.1566 17.6569 17.6569C16.3938 18.9199 14.7518 19.717 12.9981 19.9375C12.9993 19.9582 13 19.979 13 20V22C13 22.5523 12.5523 23 12 23C11.4477 23 11 22.5523 11 22V20C11 19.979 11.0006 19.9582 11.0019 19.9375C9.2482 19.717 7.60623 18.9199 6.34315 17.6569C4.84285 16.1566 4 14.1217 4 12V10C4 9.44771 4.44772 9 5 9Z" fill="#121212"></path> </g></svg>