<?xml version="1.0" encoding="utf-8"?>
<!-- Uploaded to: SVG Repo, www.svgrepo.com, Generator: SVG Repo Mixer Tools -->
<!DOCTYPE svg PUBLIC "-//W3C//DTD SVG 1.1//EN" "http://www.w3.org/Graphics/SVG/1.1/DTD/svg11.dtd">
<svg fill="#000000" version="1.1" id="Ebene_1" xmlns="http://www.w3.org/2000/svg" xmlns:xlink="http://www.w3.org/1999/xlink" 
	 width="800px" height="800px" viewBox="0 0 64 64" enable-background="new 0 0 64 64" xml:space="preserve">
<g>
	<path d="M58,44c1.104,0,2-0.896,2-2V6c0-1.104-0.896-2-2-2H34V2c0-1.104-0.896-2-2-2s-2,0.896-2,2v2H6C4.896,4,4,4.896,4,6v36
		c0,1.104,0.896,2,2,2h24v10.172l-6.414,6.414c-0.781,0.781-0.781,2.047,0,2.828s2.047,0.781,2.828,0L30,59.828V62
		c0,1.104,0.896,2,2,2s2-0.896,2-2v-2.172l3.586,3.586C37.977,63.805,38.488,64,39,64s1.023-0.195,1.414-0.586
		c0.781-0.781,0.781-2.047,0-2.828L34,54.172V44H58z M8,8h48v32H8V8z"/>
	<path d="M46,24c0,1.104,0.896,2,2,2s2-0.896,2-2V14c0-0.131-0.014-0.263-0.039-0.392c-0.013-0.06-0.035-0.115-0.052-0.173
		c-0.02-0.067-0.035-0.135-0.062-0.2c-0.029-0.068-0.068-0.131-0.104-0.195c-0.027-0.05-0.049-0.102-0.08-0.148
		c-0.147-0.22-0.336-0.408-0.556-0.555c-0.047-0.032-0.099-0.054-0.148-0.081c-0.064-0.035-0.127-0.074-0.195-0.104
		c-0.065-0.026-0.133-0.042-0.2-0.062c-0.058-0.017-0.113-0.039-0.173-0.052C48.263,12.014,48.131,12,48,12H38c-1.104,0-2,0.896-2,2
		s0.896,2,2,2h5.172L30,29.172l-4.586-4.586c-0.781-0.781-2.047-0.781-2.828,0l-8,8c-0.781,0.781-0.781,2.047,0,2.828
		C14.977,35.805,15.488,36,16,36s1.023-0.195,1.414-0.586L24,28.828l4.586,4.586c0.781,0.781,2.047,0.781,2.828,0L46,18.828V24z"/>
</g>
</svg>